<?xml version="1.0" encoding="UTF-8"?>
<svg xmlns="http://www.w3.org/2000/svg" version="1.1" width="100" height="100" viewBox="0 0 100 100"><rect x="0" y="0" width="100" height="100" fill="#ffffff"/><g transform="scale(4.762)"><g transform="translate(0,0)"><path fill-rule="evenodd" d="M9 0L9 1L8 1L8 2L9 2L9 3L8 3L8 4L9 4L9 3L10 3L10 2L9 2L9 1L10 1L10 0ZM12 0L12 1L11 1L11 2L12 2L12 1L13 1L13 0ZM11 3L11 4L10 4L10 5L8 5L8 7L9 7L9 6L10 6L10 8L6 8L6 9L7 9L7 10L4 10L4 11L2 11L2 12L1 12L1 11L0 11L0 13L7 13L7 12L5 12L5 11L8 11L8 10L9 10L9 9L10 9L10 10L11 10L11 11L12 11L12 10L13 10L13 11L14 11L14 10L13 10L13 9L14 9L14 8L13 8L13 4L12 4L12 3ZM11 5L11 7L12 7L12 5ZM0 8L0 9L2 9L2 10L3 10L3 9L5 9L5 8ZM10 8L10 9L11 9L11 10L12 10L12 8ZM15 8L15 10L16 10L16 11L15 11L15 12L16 12L16 13L17 13L17 15L18 15L18 16L17 16L17 18L16 18L16 16L15 16L15 15L16 15L16 14L15 14L15 13L14 13L14 12L13 12L13 13L12 13L12 12L9 12L9 13L8 13L8 15L11 15L11 16L12 16L12 18L10 18L10 19L9 19L9 17L10 17L10 16L8 16L8 21L9 21L9 20L11 20L11 21L12 21L12 20L11 20L11 19L12 19L12 18L13 18L13 19L14 19L14 18L13 18L13 16L15 16L15 18L16 18L16 19L15 19L15 20L16 20L16 21L17 21L17 19L18 19L18 21L19 21L19 20L20 20L20 19L19 19L19 18L18 18L18 16L19 16L19 15L20 15L20 16L21 16L21 15L20 15L20 14L21 14L21 13L19 13L19 12L18 12L18 13L17 13L17 10L16 10L16 8ZM17 8L17 9L18 9L18 11L19 11L19 9L20 9L20 10L21 10L21 9L20 9L20 8L19 8L19 9L18 9L18 8ZM9 13L9 14L11 14L11 15L12 15L12 14L11 14L11 13ZM18 13L18 15L19 15L19 13ZM13 14L13 15L14 15L14 14ZM13 20L13 21L14 21L14 20ZM0 0L0 7L7 7L7 0ZM1 1L1 6L6 6L6 1ZM2 2L2 5L5 5L5 2ZM14 0L14 7L21 7L21 0ZM15 1L15 6L20 6L20 1ZM16 2L16 5L19 5L19 2ZM0 14L0 21L7 21L7 14ZM1 15L1 20L6 20L6 15ZM2 16L2 19L5 19L5 16Z" fill="#000000"/></g></g></svg>
